<svg width="1544" height="1576" viewBox="0 0 1544 1576" fill="none" xmlns="http://www.w3.org/2000/svg">
<path d="M1544 805.909C1544 750.033 1538.99 696.305 1529.68 644.727H787.755V949.898H1211.71C1193.09 1048.04 1137.23 1131.14 1053.44 1187.01V1385.45H1309.11C1458.06 1247.91 1544 1045.89 1544 805.909Z" fill="#131517"/>
<path d="M787.755 1576C1000.45 1576 1178.77 1505.8 1309.11 1385.45L1053.44 1187.01C983.262 1234.29 893.744 1262.95 787.755 1262.95C582.939 1262.95 408.917 1124.69 346.612 938.436H84.5046V1141.88C214.126 1399.06 479.814 1576 787.755 1576Z" fill="#131517"/>
<path d="M346.612 937.72C330.857 890.44 321.547 840.295 321.547 788C321.547 735.705 330.857 685.56 346.612 638.28V434.833H84.5046C30.7941 540.855 0 660.487 0 788C0 915.513 30.7941 1035.15 84.5046 1141.17L288.605 982.135L346.612 937.72Z" fill="#131517"/>
<path d="M787.755 313.767C903.77 313.767 1006.89 353.884 1089.25 431.251L1314.83 205.596C1178.05 78.0836 1000.45 0 787.755 0C479.814 0 214.126 176.942 84.5046 434.833L346.612 638.28C408.917 452.025 582.939 313.767 787.755 313.767Z" fill="#131517"/>
</svg>
